<?xml version="1.0" encoding="UTF-8"?>
<!DOCTYPE svg PUBLIC "-//W3C//DTD SVG 1.1//EN" "http://www.w3.org/Graphics/SVG/1.1/DTD/svg11.dtd">
<!-- Creator: CorelDRAW -->
<svg xmlns="http://www.w3.org/2000/svg" xml:space="preserve" width="8.26772in" height="11.6929in" version="1.1" style="shape-rendering:geometricPrecision; text-rendering:geometricPrecision; image-rendering:optimizeQuality; fill-rule:evenodd; clip-rule:evenodd"
viewBox="0 0 8267.72 11692.91"
 xmlns:xlink="http://www.w3.org/1999/xlink"
 xmlns:xodm="http://www.corel.com/coreldraw/odm/2003">
 <defs>
  <style type="text/css">
   <![CDATA[
    .fil0 {fill:#13356D}
    .fil4 {fill:#191916}
    .fil3 {fill:#1C4B92}
    .fil2 {fill:#C67402}
    .fil1 {fill:#E59B13}
   ]]>
  </style>
 </defs>
 <g id="Camada_x0020_1">
  <metadata id="CorelCorpID_0Corel-Layer"/>
  <g id="_2520276332720">
   <path class="fil0" d="M2671.96 6154.04c94.3,-31.87 1382.16,-684.83 1447.68,-741.99l-0.72 -1755.48c-96.83,3.81 -623.57,295.87 -746.51,361.06 -141.11,74.82 -646.28,296.58 -717.58,398.76 0.29,307.18 -36.13,1535.04 17.13,1737.66z"/>
   <path class="fil1" d="M1109.84 3508.53c218.6,77.45 1254.2,674.58 1462.75,718.62l-5.98 -1768.85c-161.63,-105.67 -1297.44,-690.88 -1460.39,-728.31l3.63 1778.54z"/>
   <path class="fil2" d="M2664.03 4227.8c217.96,-66.87 523,-257.2 742.44,-364.4 241.82,-118.13 478.41,-242.7 715.88,-365.23l-11.55 -1783.74 -1452.76 730 5.99 1783.37z"/>
   <path class="fil3" d="M1101.88 5433.01c116.5,28.76 1228.26,628.96 1463.54,717.94l0.59 -1756.19c-79.17,-52.59 -1316.87,-707.74 -1459.45,-750.19l-4.69 1788.43z"/>
   <path class="fil3" d="M1106.36 7072.86c-3.09,235.07 -50.87,242.6 150.62,335.21 209.03,96.07 1184.1,635.12 1310.37,647.36l-0.16 -1746.67c-107.9,-64.74 -237.84,-128.38 -359.69,-189.39 -296.59,-148.52 -852.05,-458.3 -1107.38,-549.8l6.24 1503.29z"/>
   <path class="fil0" d="M7127.46 7312.08c9.5,-231.56 25.88,-1605.54 -14.69,-1735.87 -245,96.7 -478.67,233.22 -722.16,358.65 -214.97,110.74 -539.85,254.73 -725.98,374.2l-3.88 1749.91 1466.71 -746.89z"/>
   <path class="fil1" d="M1184.29 1640.33c76.16,84.61 1419.08,732.32 1433.11,731.74 24.94,-1.04 1364.26,-659.93 1432.8,-731.74 -73.64,-66.28 -1376.59,-727.86 -1431.12,-728.51 -57.42,-0.68 -1352.38,655.52 -1434.79,728.51z"/>
   <path class="fil3" d="M4218 5493.3c63.06,65.7 1364.24,727.21 1416.53,726.5 53.36,-0.72 1354.64,-667.8 1420.39,-726.5 -60.56,-69.37 -106.76,-74.15 -183.94,-112.84 -229.6,-115.08 -1138.85,-613.32 -1235.53,-612.8 -55.53,0.29 -627.67,299.15 -729.22,352.31 -139.94,73.27 -600.54,287.26 -688.22,373.33z"/>
   <path class="fil0" d="M4156.14 7074.26c217.42,-90.57 438.46,-227.08 661.43,-338.72l677.08 -332.68 -8.3 1651.1 -1331.37 677.67 1.15 -1657.37zm-1413.89 -671.56c66.93,16.44 125.3,57.6 178.56,83.7l489.89 252.05c216.58,106.59 446.74,229.01 661.67,336.13l1.03 1661.76c-188.3,-78.73 -472.89,-233.58 -669.7,-342.91 -200.89,-111.59 -459.51,-237.11 -662.04,-331.7l0.59 -1659.02zm55.23 -74.97c68.83,-61.89 1316.45,-673.87 1330.64,-673.96 22.76,-0.15 1244.91,621.62 1308.13,673.78l-1329.07 668.78 -1309.71 -668.6zm-127.23 1774.09c121.51,92.01 1369.29,726.22 1438.91,731.78 56.35,4.5 1325.95,-639.96 1447.63,-715.91 60.52,-284.11 21.07,-1461.16 11.74,-1820.36 -140.83,-76.87 -1383.43,-734.53 -1462.58,-729.11 -38.43,2.64 -1358.84,675.07 -1445.22,738.74l9.51 1794.85z"/>
   <path class="fil4" d="M1738.56 10183.84c-84.68,-339.64 349.18,-417.52 405.17,-141.9 69.01,339.72 -339.76,404.24 -405.17,141.9zm369.14 -348.07c-117.9,-212.95 -572.33,-118.12 -544.52,300.42 11.14,167.66 78.26,281.91 203.21,328.76 199,74.63 285.22,-23.05 380,-91.67 15.94,413.31 -123.53,225.77 -476.11,269.71l3.61 128.82c104.54,12.67 310.61,11.4 418.75,4.83 145.73,-8.84 194.5,-49.47 213.19,-189.74 27.77,-208.4 8.32,-609.69 3.83,-833.76 -51.47,-1.65 -88.38,-10.77 -130.12,9.81 -47.15,23.25 -45.51,46.93 -71.83,72.8z"/>
   <path class="fil4" d="M5622.48 10183.84c-54.17,-378.66 350.26,-399.68 405.98,-133.39 27.44,131.14 -26.67,266.84 -135.29,298 -133.25,38.23 -253.67,-45.65 -270.69,-164.61zm409.68 -358.68c-104.11,-53.67 -210.2,-148.7 -387.58,-65.43 -142.64,66.98 -193.05,200.44 -194.48,352.09 -3.91,415.54 417.11,494.8 575.42,277.28 49.11,117.26 -57.33,97.98 136.51,98.35 26.2,-35.93 13.79,-7.53 29.76,-64.65 22.43,-80.22 4.9,-935.28 -0.05,-978.57l-158.05 0.83 -1.53 380.09z"/>
   <path class="fil4" d="M3594.22 9902.91c315.02,-148.02 374.88,347.9 181.31,430.58 -305.03,130.28 -433.17,-312.24 -181.31,-430.58zm279.61 -68.71c-57.31,-41.51 -56.62,-74.46 -166.05,-96.67 -230.8,-46.85 -409.41,125.69 -410.67,374.3 -2.33,462.09 458.44,465.7 576.6,273.86 18.17,81.45 -6.79,47.64 38.77,99.97l135.57 -4.3 -3.04 -1031.94 -164.13 -2.98 -7.06 387.76z"/>
   <path class="fil4" d="M2948.94 10170.96c-3.81,184.2 -186.34,252.43 -289.11,163.37 -51.18,-44.35 -34.35,-133.08 42.83,-159.1 53.11,-17.9 186.15,-7.91 246.28,-4.27zm-328.76 -189.81c4.61,-4.72 9.85,-11.63 12.84,-15.05l76.44 -77.68c67.63,-44.62 241.16,-64.02 238.79,144.81 -128.66,12.34 -546.23,-36.81 -478.17,291.8 42.87,207 364.95,249.78 475.21,67.31 5.02,4.59 9.94,11.95 13.28,15.44l93.2 70.57c49.2,15.73 102.53,10.51 154.51,10.72 -0.46,-343.18 -97.39,78.51 -90.15,-377.52 4.7,-295.83 -134.83,-435.16 -429.09,-365.24 -145.81,34.64 -154.59,63.11 -201.18,197.78l134.3 37.06z"/>
   <path class="fil4" d="M885.39 10028.06c40.88,-190.46 322.11,-246.3 381.89,8.2l-381.89 -8.2zm531.08 279.77c-230.12,-151.27 -88.69,36.89 -304.4,51.35 -138.17,9.26 -213.52,-80.88 -229.1,-192.9l553.57 -16.83c-10.64,-592.88 -631.52,-485.11 -707.81,-153.07 -130.02,565.95 592.56,647.87 687.74,311.45z"/>
   <path class="fil4" d="M6526.02 10030.48c25.62,-193 307.74,-252.45 387.37,5.83l-387.37 -5.83zm431.31 226.28c-3.28,1.13 -356.41,275.3 -437.7,-91.95l556.88 -1.03c-1.15,-252.09 -65.64,-396.83 -299.72,-427.73 -209.08,-27.59 -381.4,93.22 -409.13,269.89 -81.51,519.47 517.52,675.61 685.03,296.37l-95.37 -45.54z"/>
   <path class="fil4" d="M4505.35 9885.2c324.14,-117.72 371.88,394.73 162.71,455.96 -331.54,97.05 -385.94,-374.89 -162.71,-455.96zm441.78 346.51c132.93,-562.06 -604.54,-670.33 -730.04,-245.63 -163.28,552.59 621.77,703.44 730.04,245.63z"/>
   <path class="fil4" d="M7133.29 9745.72c62.52,200.06 171.81,550.66 260.45,737.61l226.47 3.36 250.87 -736.64 -164.48 -1.44 -208.1 591.67 -186.67 -588.2 -178.54 -6.36z"/>
   <polygon class="fil4" points="401.57,10484.63 555.11,10483.23 552.51,9448.71 391.02,9447.45 "/>
   <path class="fil4" d="M5101.29 10478.35c183.46,50.34 232.63,-0.96 207.8,-186.25 -171.65,-64.69 -258.94,-16.82 -207.8,186.25z"/>
  </g>
 </g>
</svg>
