<svg width="590" height="768" viewBox="0 0 590 768" fill="none" xmlns="http://www.w3.org/2000/svg">
<g filter="url(#filter0_d_126_48)">
<path d="M442 515.5L301 584V759.652L442 691.5V515.5Z" fill="#BDBDBD"/>
<path d="M157 509.5L297 441L437 509L296.5 577.5L157 509.5Z" fill="#DDDDDD"/>
<path d="M152 515.734L293 584.5V759.639L152 690.826V515.734Z" fill="#D9D9D9"/>
<path fill-rule="evenodd" clip-rule="evenodd" d="M152 503L293 434.228V261L152 329.853L152 503Z" fill="#13356D"/>
<path fill-rule="evenodd" clip-rule="evenodd" d="M4 252.705L144 321V147L4 79V252.705Z" fill="#E59B13"/>
<path fill-rule="evenodd" clip-rule="evenodd" d="M152 320.949L293 252.5V79L152 147V320.949Z" fill="#C67402"/>
<path fill-rule="evenodd" clip-rule="evenodd" d="M4 434.637L144 503.137V330.137L4 261.637V434.637Z" fill="#1C4B92"/>
<path fill-rule="evenodd" clip-rule="evenodd" d="M4 618.654L144 686.923V511.5L4 443.5V618.654Z" fill="#1C4B92"/>
<path fill-rule="evenodd" clip-rule="evenodd" d="M585 621.5V445.5L450 511.5V687.5L585 621.5Z" fill="#13356D"/>
<path fill-rule="evenodd" clip-rule="evenodd" d="M8 72L148.5 141L288.5 72.5L148.903 0L8 72Z" fill="#E59B13"/>
<path fill-rule="evenodd" clip-rule="evenodd" d="M306 436.5L446 505L585.5 436.5L446 368.5L306 436.5Z" fill="#1C4B92"/>
</g>
<defs>
<filter id="filter0_d_126_48" x="0" y="0" width="589.5" height="767.652" filterUnits="userSpaceOnUse" color-interpolation-filters="sRGB">
<feFlood flood-opacity="0" result="BackgroundImageFix"/>
<feColorMatrix in="SourceAlpha" type="matrix" values="0 0 0 0 0 0 0 0 0 0 0 0 0 0 0 0 0 0 127 0" result="hardAlpha"/>
<feOffset dy="4"/>
<feGaussianBlur stdDeviation="2"/>
<feComposite in2="hardAlpha" operator="out"/>
<feColorMatrix type="matrix" values="0 0 0 0 0 0 0 0 0 0 0 0 0 0 0 0 0 0 0.25 0"/>
<feBlend mode="normal" in2="BackgroundImageFix" result="effect1_dropShadow_126_48"/>
<feBlend mode="normal" in="SourceGraphic" in2="effect1_dropShadow_126_48" result="shape"/>
</filter>
</defs>
</svg>
